<svg xmlns="http://www.w3.org/2000/svg" width="171.499" height="57.092" viewBox="0 0 171.499 57.092">
  <g id="logo_white" transform="translate(-69.675 -45)">
    <g id="_756748" data-name="756748" transform="translate(69.675 45)">
      <path id="Path_18" data-name="Path 18" d="M14.956,140.687a1.115,1.115,0,0,0-1.577,0l-2.408,2.4A19.176,19.176,0,0,0,5.3,156.746v3.128L.327,164.849A1.115,1.115,0,1,0,1.9,166.426l5.3-5.3a1.115,1.115,0,0,0,.327-.788v-3.589a16.96,16.96,0,0,1,5.013-12.086l2.407-2.4A1.115,1.115,0,0,0,14.956,140.687Z" transform="translate(0 -124.707)" fill="#d59b2d"/>
      <path id="Path_19" data-name="Path 19" d="M146.334,113.362a1.115,1.115,0,1,0,0-1.578,1.111,1.111,0,0,0,0,1.578Z" transform="translate(-129.725 -99.03)" fill="#d59b2d"/>
      <path id="Path_20" data-name="Path 20" d="M159.827,17.936a4.787,4.787,0,0,0-3.757-4.675,4.785,4.785,0,0,0-6.72-6.72,4.786,4.786,0,0,0-7.58-2.773A4.782,4.782,0,0,0,133.712,1.4l-8.264,8.264a1.115,1.115,0,1,0,1.577,1.577l8.264-8.264A2.556,2.556,0,0,1,139.075,6.4L136.2,9.282a1.115,1.115,0,0,0,0,1.577l0,0,0,0a1.115,1.115,0,0,0,1.577,0l2.7-2.7c.079-.079.154-.162.227-.245l2.161-2.161a2.556,2.556,0,0,1,3.788,3.423l-5.278,5.278a1.115,1.115,0,0,0,0,1.577l.005,0,0,0a1.115,1.115,0,0,0,1.577,0l5.1-5.1c.08-.08.155-.162.228-.247L150.5,8.495a2.556,2.556,0,0,1,3.615,3.615L151.9,14.323c-.084.073-.167.149-.247.228l-5.1,5.1a1.115,1.115,0,0,0,0,1.577l0,0,0,0a1.115,1.115,0,0,0,1.577,0l5.278-5.278a2.556,2.556,0,0,1,3.423,3.788l-7.533,7.533-7.9-7.9a3.176,3.176,0,0,0-5.111.873,3.175,3.175,0,0,0-4.46,1.443,3.176,3.176,0,0,0-4.25,4.25,3.176,3.176,0,0,0-.928,5.137l3.134,3.134a5.88,5.88,0,0,0-3.517,1.69l-.552.552a1.115,1.115,0,1,0,1.577,1.577l.552-.552a3.686,3.686,0,0,1,4.511-.544,3.22,3.22,0,0,0-1.4,5.871l4.635,3.108a11.2,11.2,0,0,0,3.408,1.537,27.854,27.854,0,0,1-8.658,1.391h-4.2a1.115,1.115,0,0,0-.788.327l-6.022,6.022a1.115,1.115,0,1,0,1.577,1.577l5.695-5.7h3.737a30.108,30.108,0,0,0,13.593-3.26h.606l8.943,8.942a1.115,1.115,0,1,0,1.577-1.577l-9.27-9.27a1.115,1.115,0,0,0-.788-.327h0l-3.148,0h-.013a8.958,8.958,0,0,1-5.006-1.523l-4.635-3.108a.992.992,0,0,1,1.067-1.673l2,1.215a1.419,1.419,0,0,0,1.739-2.217L128.243,29.5a.946.946,0,0,1,1.254-1.413l5.206,5.206a1.115,1.115,0,0,0,1.577,0l0,0,0,0a1.115,1.115,0,0,0,0-1.577l-5.126-5.126c-.049-.049-.1-.095-.15-.139l-1.232-1.232a.947.947,0,1,1,1.339-1.339l1.233,1.233c.045.051.091.1.139.149l5.126,5.126a1.115,1.115,0,0,0,1.577,0l0,0,0,0a1.115,1.115,0,0,0,0-1.577l-5.206-5.206A.946.946,0,0,1,135.4,22.34l1.379,1.379c.045.051.091.1.139.15l3.6,3.6a1.115,1.115,0,0,0,1.577,0l0,0,0,0a1.115,1.115,0,0,0,0-1.577l-3.682-3.682a.946.946,0,0,1,1.413-1.254l8.689,8.689h0l.7.7a8.928,8.928,0,0,1,2.633,6.368l0,2.035a1.115,1.115,0,0,0,.327.79l5.674,5.674a1.115,1.115,0,0,0,1.577-1.577l-5.347-5.347,0-1.572a11.141,11.141,0,0,0-3.195-7.855l7.534-7.534A4.749,4.749,0,0,0,159.827,17.936Z" transform="translate(-105.748 -0.001)" fill="#d59b2d"/>
      <path id="Path_21" data-name="Path 21" d="M493.9,416.29a1.115,1.115,0,1,0,.327.788A1.115,1.115,0,0,0,493.9,416.29Z" transform="translate(-437.137 -369.579)" fill="#d59b2d"/>
      <path id="Path_22" data-name="Path 22" d="M302.9,340l-.308.308a1.115,1.115,0,1,0,1.577,1.577l.308-.308a1.563,1.563,0,0,1,2.207,0A1.115,1.115,0,0,0,308.262,340,3.8,3.8,0,0,0,302.9,340Z" transform="translate(-268.561 -301.104)" fill="#d59b2d"/>
    </g>
    <g id="Group_64" data-name="Group 64" transform="translate(61 -0.115)">
      <path id="Path_33" data-name="Path 33" d="M8.314-8.5c-.252.023-.668.035-1.043.035-.434,0-.99-.012-1.3-.035v.24c1.061.105,1.166.41,1.166,1.729v3.756L2.5-8.5c-.281.023-.656.035-1.037.035S.668-8.473.416-8.5v.24c.762.035.9.158.9,1.031v5.4c0,1.16-.135,1.477-.9,1.582V0c.252-.023.668-.035,1.043-.035.434,0,.99.012,1.3.035V-.24C1.7-.346,1.594-.65,1.594-1.969V-6.574L6.8.023c.117-.006.223-.006.328-.006s.2,0,.287.006v-6.7c0-1.16.135-1.477.9-1.582Zm3.492,2.121c-1.723,0-2.936.9-2.936,3.275S10.084.17,11.807.17s2.941-.891,2.941-3.27S13.535-6.375,11.807-6.375Zm0,.24c.656,0,1.131.891,1.131,3.035S12.463-.07,11.807-.07,10.682-.949,10.682-3.1,11.156-6.135,11.807-6.135Zm8.139-.24a2,2,0,0,0-1.957,1.119V-6.34a7.788,7.788,0,0,1-1.752.17c-.24,0-.492-.018-.744-.041v.252c.58,0,.768.34.768,1.061v3.785c0,.668-.211.861-.768.861V0c.316-.012,1.037-.047,1.652-.047.586,0,1.207.035,1.488.047V-.252c-.475,0-.645-.193-.645-.861V-4.459a1.275,1.275,0,0,1,1.189-1.389c.6,0,.738.4.738,1v3.732c0,.668-.17.861-.645.861V0c.293-.012.943-.047,1.559-.047.586,0,1.277.035,1.582.047V-.252c-.557,0-.768-.193-.768-.861V-4.348a2.263,2.263,0,0,0-.375-1.559A1.632,1.632,0,0,0,19.945-6.375Zm7.623,3.627v-1h-4.33v1Zm3.85-.686h.639c2.83,0,3.586-1.523,3.586-2.684,0-1.395-1.09-2.367-3.322-2.367-.3,0-1.1.023-1.887.023-.674,0-1.418-.012-1.822-.035v.24c.756.035.9.158.9,1.031v5.953c0,.873-.135,1-.9,1.031V0c.521-.018,1.213-.035,1.9-.035.855,0,1.693.018,2.186.035V-.264C31.635-.275,31.418-.4,31.418-1.342Zm.744-4.822c1.09,0,1.488.756,1.488,2.268,0,1.225-.3,2.314-1.717,2.314h-.516V-7.225C31.418-8.051,31.547-8.256,32.162-8.256Zm8.145,1.881a1.809,1.809,0,0,0-1.623,1.154V-6.34a7.788,7.788,0,0,1-1.752.17c-.24,0-.492-.018-.744-.041v.252c.58,0,.768.34.768,1.061v3.785c0,.668-.211.861-.768.861V0c.328-.012,1.061-.047,1.717-.047.756,0,1.535.035,1.9.047V-.252c-.756,0-1.125-.211-1.125-.984V-4.412a1.589,1.589,0,0,1,1.09-1.547.609.609,0,0,1,.17-.029.447.447,0,0,1,.158.029,1.069,1.069,0,0,0-.527.926c0,.469.334.773.9.773A.923.923,0,0,0,41.4-5.268,1.038,1.038,0,0,0,40.307-6.375Zm4.406,0c-1.723,0-2.936.9-2.936,3.275S42.99.17,44.713.17s2.941-.891,2.941-3.27S46.441-6.375,44.713-6.375Zm0,.24c.656,0,1.131.891,1.131,3.035S45.369-.07,44.713-.07,43.588-.949,43.588-3.1,44.063-6.135,44.713-6.135Zm7.91-3.252a3.671,3.671,0,0,0-2.473.809A3.111,3.111,0,0,0,49.2-6.2h-.885v.24H49.2v4.846c0,.668-.229.861-.838.861V0c.334-.012,1.025-.047,1.74-.047.686,0,1.418.035,1.787.047V-.252c-.6,0-.961-.182-.961-.861V-5.959h1.43c.639,0,.838.34.838,1.061v3.785c0,.668-.205.861-.768.861V0c.322-.012,1.031-.047,1.67-.047s1.348.035,1.67.047V-.252c-.609,0-.844-.193-.844-.861V-6.34a14.7,14.7,0,0,1-2.566.141h-1.43a4.115,4.115,0,0,1,.328-2.08,1.627,1.627,0,0,1,1.535-.891,1.785,1.785,0,0,1,.773.152.953.953,0,0,0-.791.9c0,.551.422.9,1.131.9.727,0,1.125-.352,1.125-.92a.985.985,0,0,0-.486-.814A3.373,3.373,0,0,0,52.623-9.387ZM58.641-6.2V-8.174a3.584,3.584,0,0,1-1.729.387V-6.2H55.9v.24h1.008V-1.91a2.217,2.217,0,0,0,.434,1.676,1.618,1.618,0,0,0,1.2.4,1.661,1.661,0,0,0,1.641-1.23l-.2-.111c-.234.533-.527.721-.82.721-.352,0-.527-.176-.527-.668v-4.84h1.418V-6.2Zm8.977-2.467a4.164,4.164,0,0,0-4.248,4.488A3.985,3.985,0,0,0,67.605.17,3.477,3.477,0,0,0,69.82-.609a.5.5,0,0,1,.252-.1c.17,0,.246.217.293.709h.275c-.035-.639-.047-1.5-.047-3.023h-.281c-.111,1.172-.258,1.84-.879,2.32a2.159,2.159,0,0,1-1.494.58c-1.717,0-2.437-1.951-2.437-4.1,0-2.121.668-4.131,2.391-4.131a2.175,2.175,0,0,1,1.518.592c.621.492.773,1.072.9,2.174h.281c0-1.465.012-2.291.047-2.906h-.275c-.047.492-.141.715-.311.715a.406.406,0,0,1-.234-.105A3.331,3.331,0,0,0,67.617-8.666Zm6.422-.721a7.743,7.743,0,0,1-1.752.164c-.234,0-.486-.012-.738-.035v.252c.58,0,.768.34.768,1.055v6.838c0,.668-.211.861-.768.861V0c.316-.012,1.037-.047,1.652-.047.586,0,1.207.035,1.488.047V-.252c-.475,0-.65-.193-.65-.861V-4.459a1.273,1.273,0,0,1,1.2-1.389c.6,0,.738.4.738,1v3.732c0,.668-.17.861-.645.861V0c.293-.012.943-.047,1.559-.047.586,0,1.277.035,1.582.047V-.252c-.557,0-.768-.193-.768-.861V-4.348a2.263,2.263,0,0,0-.375-1.559A1.632,1.632,0,0,0,76-6.375a2,2,0,0,0-1.963,1.113Zm7.734,3.012a3.659,3.659,0,0,0-1.822.41,1.178,1.178,0,0,0-.674,1,.849.849,0,0,0,.85.926.882.882,0,0,0,.979-.861.952.952,0,0,0-.709-.943,1.268,1.268,0,0,1,.855-.293c.709,0,.979.445.979,1.072v.938c0,.516-.691.744-1.576,1.078-1.113.41-1.687.9-1.687,1.764A1.346,1.346,0,0,0,80.484.082a2.027,2.027,0,0,0,1.77-.973c.006.516.275.973,1.154.973a2.007,2.007,0,0,0,1.371-.439l-.123-.205a.73.73,0,0,1-.439.205c-.193,0-.258-.146-.258-.533V-4.154a2.226,2.226,0,0,0-.428-1.682A2.35,2.35,0,0,0,81.773-6.375Zm.457,5.2a.957.957,0,0,1-.809.486c-.428,0-.75-.27-.75-.932a1.675,1.675,0,0,1,.814-1.424,2.283,2.283,0,0,0,.744-.592Zm7.014-5.2a1.809,1.809,0,0,0-1.623,1.154V-6.34a7.788,7.788,0,0,1-1.752.17c-.24,0-.492-.018-.744-.041v.252c.58,0,.768.34.768,1.061v3.785c0,.668-.211.861-.768.861V0c.328-.012,1.061-.047,1.717-.047.756,0,1.535.035,1.9.047V-.252c-.756,0-1.125-.211-1.125-.984V-4.412a1.589,1.589,0,0,1,1.09-1.547.609.609,0,0,1,.17-.029.447.447,0,0,1,.158.029,1.069,1.069,0,0,0-.527.926c0,.469.334.773.9.773a.923.923,0,0,0,.932-1.008A1.038,1.038,0,0,0,89.244-6.375ZM92.279-9.3c-.674,0-1.1.352-1.1.926s.422.932,1.1.932,1.09-.352,1.09-.932S92.941-9.3,92.279-9.3Zm.943,2.965a7.788,7.788,0,0,1-1.752.17c-.24,0-.492-.018-.744-.041v.252c.58,0,.768.34.768,1.061v3.785c0,.668-.211.861-.768.861V0c.316-.012,1.037-.047,1.658-.047s1.3.035,1.605.047V-.252c-.562,0-.768-.193-.768-.861Zm3.721.141V-8.174a3.584,3.584,0,0,1-1.729.387V-6.2H94.207v.24h1.008V-1.91a2.217,2.217,0,0,0,.434,1.676,1.618,1.618,0,0,0,1.2.4,1.661,1.661,0,0,0,1.641-1.23l-.2-.111c-.234.533-.527.721-.82.721-.352,0-.527-.176-.527-.668v-4.84h1.418V-6.2Zm6.727.035c-.322,0-.791-.012-1.16-.047v.252A.864.864,0,0,1,103.4-5a3.086,3.086,0,0,1-.193.955l-.826,2.314L100.91-5.279a.934.934,0,0,1-.088-.34c0-.334.369-.34.762-.34v-.252c-.48.041-1.025.076-1.664.076-.545,0-1.125-.023-1.646-.076v.252c.176,0,.457.059.744.674L101.561.5l-.2.58c-.229.662-.609.955-1.09.955A1.141,1.141,0,0,1,100,2.01a.83.83,0,0,0,.6-.768c0-.5-.363-.762-.9-.762-.58,0-.955.316-.955.809,0,.691.727.967,1.3.967a1.588,1.588,0,0,0,1.049-.3,1.9,1.9,0,0,0,.521-.855l.463-1.289,1.688-4.74c.252-.715.527-.955.826-1.031v-.252A6.889,6.889,0,0,1,103.67-6.164Z" transform="translate(75.584 91.178)" fill="#d9e7db"/>
      <path id="Path_35" data-name="Path 35" d="M11.387-34.284c-5.5,0-9.411,3.873-9.411,9.792,0,5.88,3.213,9.36,9.284,9.36a8.566,8.566,0,0,0,4.267-1.321,3.03,3.03,0,0,1,1.4-.533c.508,0,.737.889.762,1.486h.521v-5.156c0-1.918.191-2.146,1.181-2.235v-.521c-.787.063-2.032.089-3.492.089-1.4,0-3.378-.025-4.445-.089v.521c2.184.089,2.629.457,2.629,2.819v2.553a1.441,1.441,0,0,1-.635,1.359,3.283,3.283,0,0,1-1.841.508c-3.213,0-4.991-2.769-4.991-9.017,0-4.572,1.587-8.941,5.385-8.941a5.094,5.094,0,0,1,3.4,1.283c1.346,1.092,1.714,2.629,1.956,4.712h.6c0-3.175.025-4.966.1-6.3h-.6c-.1,1.079-.292,1.575-.648,1.575a.859.859,0,0,1-.521-.254A7.339,7.339,0,0,0,11.387-34.284Zm18.148,4.966a3.92,3.92,0,0,0-3.518,2.5v-2.426a16.88,16.88,0,0,1-3.8.368c-.521,0-1.067-.038-1.613-.089v.546c1.257,0,1.664.737,1.664,2.3v8.2c0,1.448-.457,1.867-1.664,1.867v.546c.711-.025,2.3-.1,3.721-.1,1.638,0,3.327.076,4.127.1v-.546c-1.638,0-2.438-.457-2.438-2.134v-6.883c0-1.4.978-3.124,2.362-3.353a1.32,1.32,0,0,1,.368-.063.97.97,0,0,1,.343.063,2.317,2.317,0,0,0-1.143,2.007c0,1.016.724,1.676,1.943,1.676a2,2,0,0,0,2.019-2.184A2.251,2.251,0,0,0,29.536-29.318Zm9.411,0a7.93,7.93,0,0,0-3.95.889,2.554,2.554,0,0,0-1.46,2.172,1.841,1.841,0,0,0,1.841,2.007A1.911,1.911,0,0,0,37.5-26.118a2.064,2.064,0,0,0-1.537-2.045,2.747,2.747,0,0,1,1.854-.635c1.537,0,2.121.965,2.121,2.324v2.032c0,1.118-1.5,1.613-3.416,2.337-2.413.889-3.658,1.943-3.658,3.823s1.346,2.959,3.289,2.959a4.393,4.393,0,0,0,3.835-2.108c.013,1.118.6,2.108,2.5,2.108a4.351,4.351,0,0,0,2.972-.952l-.267-.444a1.583,1.583,0,0,1-.952.444c-.419,0-.559-.317-.559-1.156V-24.5c0-1.816-.165-2.857-.927-3.645A5.093,5.093,0,0,0,38.946-29.318Zm.991,11.278a2.074,2.074,0,0,1-1.753,1.054c-.927,0-1.626-.584-1.626-2.019a3.63,3.63,0,0,1,1.765-3.086,4.948,4.948,0,0,0,1.613-1.283ZM52.954-29.318c-3.683,0-6.426,2.464-6.426,7.163,0,4.877,2.667,7.023,6.058,7.023a5.382,5.382,0,0,0,5.169-4.1L57.3-19.4a3.906,3.906,0,0,1-3.4,2.121c-1.714,0-3.442-1.206-3.442-5.245,0-3.531,1.13-6.159,3.289-6.159a2.009,2.009,0,0,1,1.562.622,2.235,2.235,0,0,0-1.714,2.134A1.841,1.841,0,0,0,55.6-24a2,2,0,0,0,2.057-2.1,2.82,2.82,0,0,0-1.435-2.426A6.336,6.336,0,0,0,52.954-29.318Zm9.525-6.35c-1.46,0-2.375.762-2.375,2.007s.914,2.019,2.375,2.019c1.435,0,2.362-.762,2.362-2.019S63.914-35.668,62.479-35.668Zm2.045,6.426a16.88,16.88,0,0,1-3.8.368c-.521,0-1.067-.038-1.613-.089v.546c1.257,0,1.664.737,1.664,2.3v8.2c0,1.448-.457,1.867-1.664,1.867v.546c.686-.025,2.248-.1,3.594-.1s2.819.076,3.48.1v-.546c-1.219,0-1.664-.419-1.664-1.867Zm9.5-.076c-3.734,0-6.363,1.956-6.363,7.1s2.629,7.087,6.363,7.087,6.375-1.93,6.375-7.087S77.77-29.318,74.024-29.318Zm0,.521c1.422,0,2.451,1.93,2.451,6.579s-1.029,6.566-2.451,6.566-2.438-1.9-2.438-6.566S72.614-28.8,74.024-28.8Zm20.93-.444a16.8,16.8,0,0,1-3.8.368c-.521,0-1.067-.038-1.613-.089v.546c1.257,0,1.664.737,1.664,2.3v6.833a2.775,2.775,0,0,1-2.527,3.01c-1.3,0-1.549-.889-1.549-2.184V-29.242a16.88,16.88,0,0,1-3.8.368c-.521,0-1.067-.038-1.613-.089v.546c1.257,0,1.664.737,1.664,2.3v6.591c0,1.714.216,2.718.787,3.365a3.571,3.571,0,0,0,2.845,1.029,4.325,4.325,0,0,0,4.191-2.426v2.349a16.858,16.858,0,0,1,3.8-.356c.521,0,1.067.025,1.613.076v-.546c-1.257,0-1.664-.737-1.664-2.286Zm7.925-.076c-2.362,0-4.47,1.27-4.47,3.581,0,2.1,1.562,3.277,3.264,4.61,1.5,1.168,2.629,2.019,2.629,3.543a1.721,1.721,0,0,1-1.829,1.854c-2.184,0-3.188-1.968-3.505-4.788h-.559c0,2.629-.025,4.077-.1,5.194h.546c.127-.559.343-.927.635-.927a.371.371,0,0,1,.114.025,7.882,7.882,0,0,1,1.206.546,5.093,5.093,0,0,0,2.438.546c2.68,0,4.928-1.486,4.928-3.861,0-2.057-1.372-3.175-3.111-4.458-1.6-1.194-3.2-2.057-3.2-3.619a1.624,1.624,0,0,1,1.765-1.676c2.222,0,3.073,2.108,3.34,4.026h.546c0-2.311.025-3.581.114-4.572h-.559c-.089.648-.3.952-.61.952a.907.907,0,0,1-.47-.178A6.052,6.052,0,0,0,102.878-29.318Z" transform="translate(72 88.783)" fill="#d9e7db"/>
    </g>
  </g>
</svg>
